<svg width="240" height="100" viewBox="0 0 240 100" fill="none" xmlns="http://www.w3.org/2000/svg">
<circle cx="50" cy="50" r="50" fill="url(#paint0_linear_494_757)"/>
<path d="M24.5284 65V35.9091H43.7898V40.9801H30.679V47.9119H42.5114V52.983H30.679V65H24.5284ZM60.4375 55.7102V43.1818H66.4886V65H60.679V61.0369H60.4517C59.9593 62.3153 59.1402 63.3428 57.9943 64.1193C56.858 64.8958 55.4706 65.2841 53.8324 65.2841C52.3741 65.2841 51.0909 64.9527 49.983 64.2898C48.875 63.6269 48.0085 62.6847 47.3835 61.4631C46.768 60.2415 46.4555 58.7784 46.446 57.0739V43.1818H52.4972V55.9943C52.5066 57.2822 52.8523 58.3002 53.5341 59.0483C54.2159 59.7964 55.1297 60.1705 56.2756 60.1705C57.0047 60.1705 57.6866 60.0047 58.321 59.6733C58.9555 59.3324 59.4669 58.8305 59.8551 58.1676C60.2528 57.5047 60.447 56.6856 60.4375 55.7102ZM77.38 52.3864V65H71.3288V43.1818H77.0959V47.0312H77.3516C77.8345 45.7623 78.6442 44.7585 79.7805 44.0199C80.9169 43.2718 82.2947 42.8977 83.9141 42.8977C85.4292 42.8977 86.7502 43.2292 87.8771 43.892C89.004 44.5549 89.88 45.5019 90.505 46.733C91.13 47.9545 91.4425 49.4129 91.4425 51.108V65H85.3913V52.1875C85.4008 50.8523 85.0599 49.8106 84.3686 49.0625C83.6773 48.3049 82.7256 47.9261 81.5135 47.9261C80.6991 47.9261 79.9794 48.1013 79.3544 48.4517C78.7389 48.8021 78.2559 49.3134 77.9055 49.9858C77.5646 50.6487 77.3894 51.4489 77.38 52.3864Z" fill="#EEEEEE"/>
<path d="M96.3253 35.9091H103.911L111.922 55.4545H112.263L120.274 35.9091H127.859V65H121.893V46.0653H121.652L114.124 64.858H110.061L102.533 45.9943H102.291V65H96.3253V35.9091Z" fill="url(#paint1_linear_494_757)"/>
<path d="M142.756 65.4261C140.512 65.4261 138.58 64.9716 136.961 64.0625C135.351 63.1439 134.111 61.8466 133.239 60.1705C132.368 58.4848 131.933 56.4915 131.933 54.1903C131.933 51.946 132.368 49.9763 133.239 48.2812C134.111 46.5862 135.337 45.2652 136.918 44.3182C138.509 43.3712 140.375 42.8977 142.515 42.8977C143.954 42.8977 145.294 43.1297 146.535 43.5938C147.785 44.0483 148.874 44.7348 149.802 45.6534C150.739 46.572 151.469 47.7273 151.989 49.1193C152.51 50.5019 152.771 52.1212 152.771 53.9773V55.6392H134.347V51.8892H147.075C147.075 51.018 146.885 50.2462 146.506 49.5739C146.128 48.9015 145.602 48.3759 144.93 47.9972C144.267 47.6089 143.495 47.4148 142.614 47.4148C141.696 47.4148 140.881 47.6278 140.171 48.054C139.47 48.4706 138.921 49.0341 138.523 49.7443C138.126 50.4451 137.922 51.2263 137.913 52.0881V55.6534C137.913 56.733 138.112 57.6657 138.509 58.4517C138.916 59.2377 139.489 59.8438 140.228 60.2699C140.967 60.696 141.843 60.9091 142.856 60.9091C143.528 60.9091 144.144 60.8144 144.702 60.625C145.261 60.4356 145.739 60.1515 146.137 59.7727C146.535 59.3939 146.838 58.9299 147.046 58.3807L152.643 58.75C152.359 60.0947 151.776 61.2689 150.896 62.2727C150.024 63.267 148.897 64.0436 147.515 64.6023C146.142 65.1515 144.556 65.4261 142.756 65.4261ZM156.719 65V43.1818H162.487V47.0312H162.742C163.197 45.7528 163.954 44.7443 165.015 44.0057C166.076 43.267 167.344 42.8977 168.822 42.8977C170.318 42.8977 171.592 43.2718 172.643 44.0199C173.694 44.7585 174.395 45.7623 174.745 47.0312H174.972C175.417 45.7812 176.222 44.7822 177.387 44.0341C178.561 43.2765 179.949 42.8977 181.549 42.8977C183.585 42.8977 185.237 43.5464 186.506 44.8438C187.785 46.1316 188.424 47.9593 188.424 50.3267V65H182.387V51.5199C182.387 50.3078 182.065 49.3987 181.421 48.7926C180.777 48.1866 179.972 47.8835 179.006 47.8835C177.908 47.8835 177.051 48.2339 176.435 48.9347C175.82 49.6259 175.512 50.5398 175.512 51.6761V65H169.646V51.392C169.646 50.322 169.338 49.4697 168.722 48.8352C168.116 48.2008 167.316 47.8835 166.322 47.8835C165.649 47.8835 165.043 48.054 164.504 48.3949C163.973 48.7263 163.552 49.1951 163.239 49.8011C162.927 50.3977 162.771 51.0985 162.771 51.9034V65H156.719ZM203.062 65.4261C200.855 65.4261 198.947 64.9574 197.337 64.0199C195.737 63.0729 194.501 61.7566 193.63 60.071C192.759 58.3759 192.323 56.411 192.323 54.1761C192.323 51.9223 192.759 49.9527 193.63 48.267C194.501 46.572 195.737 45.2557 197.337 44.3182C198.947 43.3712 200.855 42.8977 203.062 42.8977C205.268 42.8977 207.172 43.3712 208.772 44.3182C210.382 45.2557 211.622 46.572 212.494 48.267C213.365 49.9527 213.8 51.9223 213.8 54.1761C213.8 56.411 213.365 58.3759 212.494 60.071C211.622 61.7566 210.382 63.0729 208.772 64.0199C207.172 64.9574 205.268 65.4261 203.062 65.4261ZM203.09 60.7386C204.094 60.7386 204.932 60.4545 205.604 59.8864C206.277 59.3087 206.783 58.5227 207.124 57.5284C207.475 56.5341 207.65 55.4025 207.65 54.1335C207.65 52.8646 207.475 51.733 207.124 50.7386C206.783 49.7443 206.277 48.9583 205.604 48.3807C204.932 47.803 204.094 47.5142 203.09 47.5142C202.077 47.5142 201.225 47.803 200.533 48.3807C199.852 48.9583 199.335 49.7443 198.985 50.7386C198.644 51.733 198.474 52.8646 198.474 54.1335C198.474 55.4025 198.644 56.5341 198.985 57.5284C199.335 58.5227 199.852 59.3087 200.533 59.8864C201.225 60.4545 202.077 60.7386 203.09 60.7386Z" fill="#7E6178"/>
<defs>
<linearGradient id="paint0_linear_494_757" x1="50" y1="0" x2="50" y2="100" gradientUnits="userSpaceOnUse">
<stop stop-color="#9C7EFF"/>
<stop offset="1" stop-color="#737373"/>
</linearGradient>
<linearGradient id="paint1_linear_494_757" x1="22" y1="50.5" x2="240" y2="50.5" gradientUnits="userSpaceOnUse">
<stop stop-color="white"/>
<stop offset="1"/>
</linearGradient>
</defs>
</svg>
